<svg id="SvgjsSvg2243" width="360" height="360" xmlns="http://www.w3.org/2000/svg" version="1.1"
	xmlns:xlink="http://www.w3.org/1999/xlink" xmlns:svgjs="http://svgjs.com/svgjs">
	<defs id="SvgjsDefs2244"></defs>
	<g id="SvgjsG2245">
		<svg xmlns="http://www.w3.org/2000/svg" enable-background="new 0 0 300 225"
			viewBox="0 0 300 225" width="360" height="360">
			<path fill="none" stroke="#000000" stroke-miterlimit="10" stroke-width=".316"
				d="M210.53,24.23c33.22,4.24,5.73,32.62,46.09,55.63c26.28,14.98,29.93,35.75,23.77,55.06			c-8.75,27.43-36.6,49.34-72.95,58.47c-22.73,5.7-53.12,8.97-89.82,2.88c-51.69-8.57-95.5-26.3-100.58-77.18
			c0,0,0-27.28,29.56-15.06c24.71,10.21,54.97,10.22,51.18-13.71c-3.8-23.93-18-24.91-40.03-33.18S43.91,18.51,64.2,18.51
			s33.08,42,72.4,31.5S158.45,17.59,210.53,24.23z"
				class="colorStroke000 svgStroke"></path>
			<path
				d="M254.35 54.67c-.42-1.43-.99-2.8-1.69-4.09l3.37-5.31-3.15-3.15-3.15-3.15-5.31 3.37c-1.29-.71-2.66-1.27-4.09-1.69l-1.38-6.14h-8.91l-1.38 6.14c-1.43.42-2.8.99-4.09 1.69l-5.31-3.37-3.15 3.15-3.15 3.15 3.37 5.31c-.7 1.29-1.27 2.66-1.69 4.09l-6.14 1.38v8.91l6.14 1.38c.42 1.43.99 2.8 1.69 4.09l-3.37 5.31 3.15 3.15 3.15 3.15 5.31-3.37c1.29.71 2.65 1.27 4.09 1.69l1.38 6.14h8.91l1.38-6.14c1.43-.42 2.8-.99 4.09-1.69l5.31 3.37 3.15-3.15 3.15-3.15-3.37-5.31c.71-1.29 1.27-2.66 1.69-4.09l6.14-1.38v-8.91L254.35 54.67zM234.5 73.81c-7.35 0-13.31-5.96-13.31-13.31 0-7.35 5.96-13.31 13.31-13.31 7.35 0 13.31 5.96 13.31 13.31C247.81 67.85 241.85 73.81 234.5 73.81zM224.64 93.56c-.26-.89-.61-1.73-1.05-2.53l2.08-3.29-1.95-1.95-1.95-1.95-3.29 2.09c-.8-.44-1.65-.79-2.53-1.05l-.85-3.8h-5.51l-.85 3.8c-.89.26-1.73.61-2.53 1.05l-3.29-2.09-1.95 1.95-1.95 1.95 2.08 3.29c-.43.8-.79 1.64-1.05 2.53l-3.8.85v5.51l3.8.85c.26.89.61 1.73 1.05 2.53l-2.08 3.29 1.95 1.95 1.95 1.95 3.29-2.09c.8.44 1.64.79 2.53 1.05l.85 3.8h5.51l.85-3.8c.89-.26 1.73-.61 2.53-1.05l3.29 2.09 1.95-1.95 1.95-1.95-2.08-3.29c.44-.8.79-1.64 1.05-2.53l3.8-.85v-5.51L224.64 93.56zM212.35 105.41c-4.55 0-8.24-3.69-8.24-8.24 0-4.55 3.69-8.24 8.24-8.24 4.55 0 8.24 3.69 8.24 8.24C220.59 101.72 216.9 105.41 212.35 105.41zM189.51 206.49H61.47c-1.84 0-3.33-1.49-3.33-3.33V35.9c0-1.84 1.49-3.33 3.33-3.33h128.05c1.84 0 3.33 1.49 3.33 3.33v167.25C192.84 205 191.35 206.49 189.51 206.49z"
				fill="#292929" class="color000 svgShape"></path>
			<rect width="160.04" height="120.83" x="45.47" y="59.12" fill="#fff5c7"
				transform="rotate(90 125.491 119.531)" class="colorfff svgShape"></rect>
			<path fill="#a0653a"
				d="M149.64,25.47h-48.29c-2.45,0-4.44,1.99-4.44,4.44v9.6h57.17v-9.6C154.08,27.46,152.09,25.47,149.64,25.47z"
				class="colorff7f6e svgShape"></path>
			<rect width="11.38" height="11.38" x="78.92" y="92.66" fill="#292929"
				class="color000 svgShape"></rect>
			<rect width="11.38" height="11.38" x="78.92" y="113.84" fill="#292929"
				class="color000 svgShape"></rect>
			<rect width="11.38" height="11.38" x="78.92" y="135.02" fill="#292929"
				class="color000 svgShape"></rect>
			<rect width="11.38" height="11.38" x="78.92" y="156.2" fill="#292929"
				class="color000 svgShape"></rect>
			<line x1="96.4" x2="172.06" y1="98.35" y2="98.35" fill="none" stroke="#000000"
				stroke-miterlimit="10" stroke-width=".947" class="colorStroke000 svgStroke"></line>
			<line x1="96.4" x2="172.06" y1="119.53" y2="119.53" fill="none" stroke="#000000"
				stroke-miterlimit="10" stroke-width=".947" class="colorStroke000 svgStroke"></line>
			<line x1="96.4" x2="172.06" y1="140.71" y2="140.71" fill="none" stroke="#000000"
				stroke-miterlimit="10" stroke-width=".947" class="colorStroke000 svgStroke"></line>
			<line x1="96.4" x2="172.06" y1="161.89" y2="161.89" fill="none" stroke="#000000"
				stroke-miterlimit="10" stroke-width=".947" class="colorStroke000 svgStroke"></line>
			<polyline fill="none" stroke="#ff7f6e" stroke-miterlimit="10" stroke-width="1.263"
				points="79.98 95.15 84.35 98.92 94.18 87.78"></polyline>
			<polyline fill="none" stroke="#ff7f6e" stroke-miterlimit="10" stroke-width="1.263"
				points="79.98 116.43 84.35 120.2 94.18 109.06"></polyline>
			<polyline fill="none" stroke="#ff7f6e" stroke-miterlimit="10" stroke-width="1.263"
				points="79.98 137.71 84.35 141.48 94.18 130.35"></polyline>
			<line x1="78.92" x2="172.06" y1="55.88" y2="55.88" fill="none" stroke="#000000"
				stroke-miterlimit="10" stroke-width=".947" class="colorStroke000 svgStroke"></line>
			<line x1="78.92" x2="172.06" y1="70.45" y2="70.45" fill="none" stroke="#000000"
				stroke-miterlimit="10" stroke-width=".947" class="colorStroke000 svgStroke"></line>
			<path fill="#fff5c7" stroke="#000000" stroke-miterlimit="10" stroke-width=".316"
				d="M75.78,97.37H39.23c-1.16,0-2.1-0.94-2.1-2.1V47.65c0-1.16,0.94-2.1,2.1-2.1h36.54c1.16,0,2.1,0.94,2.1,2.1
				v47.61C77.88,96.43,76.94,97.37,75.78,97.37z"
				class="colorfff svgShape colorStroke000 svgStroke"></path>
			<rect width="30.15" height="22.41" x="42.43" y="49.05" fill="#292929"
				class="color000 svgShape"></rect>
			<line x1="42.43" x2="55.22" y1="76.83" y2="76.83" fill="none" stroke="#000000"
				stroke-miterlimit="10" stroke-width=".947" class="colorStroke000 svgStroke"></line>
			<line x1="42.43" x2="67.36" y1="83.01" y2="83.01" fill="none" stroke="#000000"
				stroke-miterlimit="10" stroke-width=".947" class="colorStroke000 svgStroke"></line>
			<line x1="42.43" x2="72.58" y1="89.2" y2="89.2" fill="none" stroke="#000000"
				stroke-miterlimit="10" stroke-width=".947" class="colorStroke000 svgStroke"></line>
			<path fill="#fff5c7"
				d="M44.26,58.56c0,0,5.9-2.28,7.06,1.81c1.15,4.07,3.42,3.64,4.2,2.86c0.83-0.83,0.91-5.44,3.79-6.07
				c2.17-0.47,4.51,0.23,4.78,3.79c0.26,3.43,0.82,5.19,2.05,4.9c1.23-0.29,1.22-5.57,2.5-6.19c1.38-0.66,2.1-0.06,2.1-0.06v10.15
				H44.26V58.56z"
				class="colorfff svgShape"></path>
			<path fill="#fff5c7" stroke="#000000" stroke-miterlimit="10" stroke-width=".316"
				d="M136.55,206.4h74.38c1.28,0,2.32-1.04,2.32-2.32v-52.15c0-1.28-1.04-2.32-2.32-2.32h-74.38
			c-1.28,0-2.32,1.04-2.32,2.32v52.15C134.23,205.36,135.27,206.4,136.55,206.4z"
				class="colorfff svgShape colorStroke000 svgStroke"></path>
			<g fill="#292929" class="color000 svgShape">
				<rect width="7.46" height="11.83" x="143.32" y="180.69" fill="#292929"
					class="color000 svgShape"></rect>
				<rect width="7.46" height="27.59" x="161.12" y="164.92" fill="#292929"
					class="color000 svgShape"></rect>
				<rect width="7.46" height="36.57" x="178.91" y="155.94" fill="#292929"
					class="color000 svgShape"></rect>
				<rect width="7.46" height="7.45" x="196.7" y="185.07" fill="#292929"
					class="color000 svgShape"></rect>
				<rect width="7.46" height=".72" x="196.7" y="196.58" fill="#292929"
					class="color000 svgShape"></rect>
				<rect width="7.46" height=".72" x="178.91" y="196.58" fill="#292929"
					class="color000 svgShape"></rect>
				<rect width="7.46" height=".72" x="161.12" y="196.58" fill="#292929"
					class="color000 svgShape"></rect>
				<rect width="7.46" height=".72" x="143.32" y="196.58" fill="#292929"
					class="color000 svgShape"></rect>
			</g>
		</svg>
	</g>
</svg>